<?xml version="1.0" encoding="UTF-8"?>
<svg xmlns="http://www.w3.org/2000/svg" id="Layer_1" data-name="Layer 1" version="1.1" viewBox="0 0 1080 400">
  <defs>
    <style>
      .cls-1 {
        fill: #064f55;
        stroke-width: 0px;
      }
    </style>
  </defs>
  <path class="cls-1" d="M396,280.4l-84.1-162.7c-3.7-7.2-11.1-11.8-19.4-11.8s-15.5,4.4-19.3,11.6l-77.3,144.2c-4.8,9-3,19.6,4.5,26.5s18.2,7.8,26.7,2.2l45.3-29.5c12.2-7.9,26.3-12,40.6-12s12.8.8,19,2.5c20.3,5.4,37.4,19.1,47.1,37.8,1.6,3.1,4.8,5.1,8.3,5.1s6.4-1.7,8.1-4.5c1.9-3,2-6.5.5-9.4ZM309.4,214.4l-92.4,60.1c-.6.4-1.1.6-1.7.6s-1.4-.3-2.1-1c-.7-.7-1.5-1.9-.5-3.6l77.3-144.3c.6-1.2,1.8-1.5,2.7-1.5s2.1.6,2.6,1.6l24.8,48c7.2,14.1,2.6,31.3-10.7,40.1Z"></path>
  <path class="cls-1" d="M477.6,209.5c-.5,0-1,.2-1.5.2l63.9-39c4.6-2.8,5.9-8.6,3-13.2-2.5-4.5-8.6-6.1-13.2-3.3l-99.9,61.1v-99.4c0-5.3-4.4-9.7-9.7-9.7s-9.6,4.4-9.6,9.7v168.2c0,5.3,4.3,9.6,9.6,9.6s9.7-4.4,9.7-9.6v-7.4c0-26.4,21.3-47.7,47.7-47.7s47.7,21.3,47.7,47.7v7.4c0,5.3,4.3,9.6,9.6,9.6s9.7-4.4,9.7-9.6v-7.4c0-37-30-67.2-67-67.2Z"></path>
  <path class="cls-1" d="M689.5,152.9c-5.3,0-9.8,4.3-9.8,9.7v12.3c-15.5-16.4-38.8-25.6-64.1-20.7-28,5-50.6,27.1-55.8,55-8.9,44.9,25.6,84.5,69,84.5s18.7-2.1,27.1-5.6c2.9-1.2,5.6-3,7.7-5.3,1.7-1.7,2.7-4,2.7-6.5,0-4.9-4.1-9-9-9s-2.5.2-3.6.7c-15,8.4-34.2,9-51-.7-12.8-7.3-21.7-20.3-24.2-34.7-5.7-32.2,19.1-60.4,50.3-60.4s50.9,22.8,50.9,51.1v60.8c0,5.3,4.5,9.6,9.8,9.6s9.7-4.3,9.7-9.6v-121.5c0-5.4-4.3-9.7-9.7-9.7Z"></path>
  <path class="cls-1" d="M848.3,176.5c-13.4-15-32.7-23.6-52.8-23.6s-37.8,7.8-51,22.1v-12.4c0-5.3-4.3-9.6-9.9-9.6s-9.6,4.3-9.6,9.6v121.5c0,5.3,4.3,9.6,9.6,9.6s9.9-4.4,9.9-9.6v-60.9c0-12.7,4.5-25.1,13.4-34.5,9.6-10.4,23.3-16.5,37.5-16.5s28.7,6.4,38.3,17.2c3.6,4.1,9.6,4.3,13.7.8,4-3.5,4.5-9.6.9-13.7Z"></path>
  <path class="cls-1" d="M877.1,152.9c-5.4,0-9.6,4.3-9.6,9.6v121.5c0,5.3,4.3,9.6,9.6,9.6s9.6-4.4,9.6-9.6v-121.4c0-5.4-4.3-9.7-9.6-9.7ZM885.9,112.1c-.5-1-1.2-2.3-2-3-.8-1.1-2-1.8-3.3-2.1-3.3-1.5-7.6-.8-10.4,2.1-1.1.7-1.6,2-2.1,3-.5,1.2-.7,2.5-.7,3.8s.2,2.3.7,3.5c.5,1.3,1,2.3,2.1,3.3,1.7,1.8,4.3,2.8,6.8,2.8s2.5-.2,3.5-.8c1.3-.5,2.5-1.2,3.3-2,.8-1,1.5-2,2-3.3.5-1.2.8-2.2.8-3.5s0-2.6-.7-3.8Z"></path>
</svg>
