<?xml version="1.0" encoding="UTF-8"?>
<svg xmlns="http://www.w3.org/2000/svg" id="Layer_1" data-name="Layer 1" version="1.1" viewBox="0 0 550 550">
  <defs>
    <style>
      .cls-1 {
        fill: #064f55;
      }

      .cls-1, .cls-2 {
        stroke-width: 0px;
      }

      .cls-2 {
        fill: #fff;
      }
    </style>
  </defs>
  <path class="cls-1" d="M519.1,459.9L321.6,77.7c-10.2-19.8-30.4-32.1-52.8-32.1s-42.3,12.1-52.5,31.6L34.7,415.8c-13,24.4-8.1,53.4,12.2,72.1,11.2,10.3,25.4,15.9,40.1,15.9s22.8-3.4,32.6-9.9l106.4-69.3c27.2-17.6,58.6-26.9,90.9-26.9s29,1.9,42.5,5.6c45.4,12.1,83.8,42.9,105.5,84.6,5.2,10.1,15.5,16.4,26.7,16.4s20.5-5.5,26-14.4c5.9-9.3,6.4-20.6,1.5-30.1ZM308.5,308.6l-217,141.2c-1.4.9-2.6,1.4-4,1.4s-3.3-.7-4.9-2.3c-1.6-1.6-3.5-4.5-1.2-8.5L262.9,101.4c1.4-2.8,4.2-3.5,6.3-3.5s4.9,1.4,6.1,3.8l58.3,112.7c16.9,33.1,6.1,73.5-25.1,94.2Z"></path>
  <path class="cls-2" d="M308.5,308.6l-217,141.2c-1.4.9-2.6,1.4-4,1.4s-3.3-.7-4.9-2.3c-1.6-1.6-3.5-4.5-1.2-8.5L262.9,101.4c1.4-2.8,4.2-3.5,6.3-3.5s4.9,1.4,6.1,3.8l58.3,112.7c16.9,33.1,6.1,73.5-25.1,94.2Z"></path>
  <path class="cls-2" d="M526.4,456.1L328.9,74c-11.6-22.5-34.6-36.5-60.1-36.5s-48,13.8-59.7,35.9L27.5,412c-14.8,27.8-9.2,60.7,13.9,82,12.7,11.7,28.9,18.1,45.6,18.1s25.9-3.9,37.1-11.3l106.3-69.3c25.8-16.7,55.7-25.5,86.5-25.5s27.5,1.8,40.3,5.3h0s0,0,0,0c43.2,11.5,79.7,40.8,100.3,80.5,6.6,12.8,19.6,20.8,34,20.8s26-7,32.9-18.3c7.4-11.8,8.1-26,1.8-38.2ZM491.7,496.3c-8.2,0-15.7-4.7-19.5-12-22.8-43.9-63-76.1-110.6-88.8-14.6-4-29.6-5.9-44.6-5.9-33.6,0-66.7,9.6-95.4,28.2l-106.4,69.3c-8.8,5.8-18.5,8.6-28.2,8.6s-24.7-4.7-34.6-13.8c-17.6-16.2-21.8-41.1-10.6-62.2L223.5,81c8.9-16.9,26.3-27.2,45.3-27.2s36.9,10.8,45.6,27.7l197.5,382.1c3.5,6.8,3.3,15-1.2,22.1-4,6.6-11.3,10.6-19,10.6Z"></path>
</svg>
